<?xml version="1.0" encoding="utf-8"?>
<!-- Generator: Adobe Illustrator 18.1.1, SVG Export Plug-In . SVG Version: 6.00 Build 0)  -->
<!DOCTYPE svg PUBLIC "-//W3C//DTD SVG 1.1//EN" "http://www.w3.org/Graphics/SVG/1.1/DTD/svg11.dtd">
<svg version="1.1" id="Layer_1" xmlns="http://www.w3.org/2000/svg" xmlns:xlink="http://www.w3.org/1999/xlink" x="0px" y="0px"
	 viewBox="0 0 110 57" enable-background="new 0 0 110 57" xml:space="preserve">
<g>
	<path fill="#000000" d="M17.8,37.8c1.2,0,1.4-0.3,1.4-1.8v-5c0-1.5-0.2-1.8-1.4-1.8v-0.3h6.8l0.1,2h-0.3l-0.1-0.3
		c-0.2-0.8-0.4-1.2-1.7-1.2h-2.2v3.5h0.7c1.5,0,1.7-0.2,1.7-1.5h0.3v3.6h-0.3c0-1.3-0.2-1.5-1.7-1.5h-0.7v2.3c0,1.6,0.2,1.8,1.4,1.8
		h1.3c1.4,0,1.5-0.4,1.7-1.2l0.1-0.3h0.3L25,38.1h-7.3V37.8z"/>
	<path fill="#000000" d="M25.1,38.2h-7.4v-0.5h0.1c1.2,0,1.3-0.2,1.3-1.7v-5c0-1.5-0.2-1.7-1.3-1.7h-0.1v-0.5h6.9l0.1,2.2h-0.5
		l-0.1-0.4c-0.2-0.8-0.3-1.1-1.6-1.1h-2.1v3.4h0.7c1.5,0,1.6-0.2,1.6-1.4v-0.1h0.5V35h-0.5v-0.1c0-1.3-0.2-1.4-1.6-1.4h-0.7v2.2
		c0,1.5,0.1,1.7,1.3,1.7h1.3c1.3,0,1.5-0.3,1.6-1.1l0.1-0.4h0.4L25.1,38.2z M17.9,38H25l0.1-1.9h-0.2l-0.1,0.3
		c-0.2,0.9-0.4,1.2-1.8,1.2h-1.3c-1.3,0-1.5-0.3-1.5-1.9v-2.3h0.8c1.5,0,1.8,0.2,1.8,1.5h0.2v-3.4h-0.2c0,1.3-0.3,1.5-1.8,1.5h-0.8
		v-3.7h2.3c1.4,0,1.6,0.4,1.8,1.2l0.1,0.3h0.2l-0.1-1.9h-6.6V29c1.2,0,1.4,0.3,1.4,1.9v5c0,1.6-0.2,1.9-1.4,1.9V38z"/>
	<path fill="#000000" d="M28.8,38.4h-0.3v-3.4h0.3c0,0,0,2.8,2.7,2.8c1.1,0,1.9-0.7,1.9-1.7c0-0.7-0.7-1.3-1.7-1.9l-1.4-0.8
		c-0.9-0.5-1.6-1.4-1.6-2.6c0-1.3,1-2.3,2.5-2.3c0.9,0,1.4,0.3,1.8,0.6c0.2-0.2,0.4-0.4,0.4-0.7h0.3v3.4h-0.3
		c-0.1-1.2-0.5-2.7-2.3-2.7c-0.8,0-1.4,0.6-1.4,1.4c0,0.8,0.5,1.2,1.8,1.9l1.4,0.8c1.1,0.6,1.5,1.5,1.5,2.4c0,1.7-1.3,2.8-2.8,2.8
		c-1.1,0-1.8-0.6-2.3-0.7C29,37.8,28.9,38,28.8,38.4"/>
	<path fill="#000000" d="M31.5,38.4c-0.8,0-1.4-0.3-1.8-0.5c-0.2-0.1-0.4-0.2-0.5-0.2c-0.1,0.2-0.3,0.4-0.3,0.7l0,0.1h-0.4v-3.6h0.4
		v0.1c0,0.1,0.1,2.7,2.7,2.7c1,0,1.8-0.7,1.8-1.6c0-0.6-0.5-1.2-1.7-1.8l-1.4-0.8c-0.8-0.4-1.7-1.4-1.7-2.6c0-1.4,1.1-2.4,2.5-2.4
		c0.9,0,1.4,0.3,1.8,0.6c0.1-0.1,0.3-0.3,0.4-0.6l0-0.1h0.4v3.6h-0.5l0-0.1c-0.1-1.8-0.9-2.6-2.2-2.6c-0.8,0-1.4,0.6-1.4,1.3
		c0,0.8,0.5,1.2,1.8,1.9l1.4,0.8c1.3,0.7,1.6,1.7,1.6,2.4C34.4,37.2,33.2,38.4,31.5,38.4 M29.2,37.6c0.2,0,0.4,0.1,0.6,0.2
		c0.4,0.2,1,0.5,1.7,0.5c1.6,0,2.7-1.1,2.7-2.7c0-0.7-0.3-1.6-1.5-2.3l-1.4-0.8c-1.3-0.7-1.8-1.1-1.8-2c0-0.8,0.6-1.5,1.5-1.5
		c1.4,0,2.2,0.9,2.3,2.7h0.2v-3.3h-0.2c-0.1,0.3-0.3,0.6-0.4,0.7l0,0l-0.1,0c-0.4-0.3-0.9-0.6-1.8-0.6c-1.4,0-2.4,1-2.4,2.2
		c0,1.2,0.8,2.1,1.6,2.5l1.4,0.8c1.2,0.6,1.7,1.3,1.7,1.9c0,1-0.8,1.8-1.9,1.8c-2.5,0-2.8-2.3-2.8-2.8h-0.1v3.3h0.2
		C28.8,38,29,37.8,29.2,37.6"/>
	<path fill="#000000" d="M45.9,30.9h-0.3l-0.1-0.3c-0.2-0.8-0.4-1.2-1.7-1.2h-1.9V36c0,1.5,0.2,1.8,1.4,1.8v0.3h-4v-0.3
		c1.2,0,1.4-0.3,1.4-1.8v-6.6h-1.9c-1.4,0-1.5,0.4-1.7,1.2L37,30.9h-0.3l0.1-2.1h9L45.9,30.9z"/>
	<path fill="#000000" d="M43.4,38.2h-4.2v-0.5h0.1c1.2,0,1.3-0.2,1.3-1.7v-6.5h-1.9c-1.3,0-1.4,0.3-1.6,1.1L37,31h-0.4l0.1-2.2h9.1
		L46,31h-0.4l-0.1-0.4c-0.2-0.8-0.3-1.1-1.6-1.1h-1.9V36c0,1.5,0.2,1.7,1.4,1.7h0.1V38.2z M39.4,38h3.9v-0.2c-1.2,0-1.4-0.3-1.4-1.9
		v-6.6h2c1.4,0,1.6,0.4,1.8,1.2l0.1,0.2h0.2l-0.1-1.9h-8.9l-0.1,1.9h0.2l0.1-0.2c0.2-0.8,0.4-1.2,1.8-1.2h2V36
		c0,1.6-0.2,1.9-1.4,1.9V38z"/>
	<path fill="#000000" d="M53.8,38.2v-0.5c1.7,0,2-0.4,2-2.6v-3.5c0-2.2-0.3-2.6-2-2.6v-0.4h5.5v0.4c-1.8,0-2,0.4-2,2.6v3.5
		c0,2.2,0.3,2.6,2,2.6v0.5H53.8z"/>
	<path fill="#000000" d="M66.3,42.3c-1.7,0-3.1-1-3.1-1.7c0-0.4,0.3-0.6,0.6-0.6c0.6,0,0.9,1.5,2.5,1.5c2.3,0,2.9-3.2,3.1-6.3
		c-0.5,0.7-1.3,1.3-2.5,1.3c-2.3,0-4.2-1.8-4.2-4.1c0-2.3,1.9-4.1,4.2-4.1c1.6,0,4.2,1.1,4.2,6.2C71.1,38.2,69.5,42.3,66.3,42.3
		 M66.8,29.2c-1.8,0-2.5,1.6-2.5,3.2c0,1.6,0.7,3.2,2.5,3.2c1.2,0,2.3-0.7,2.5-1.6C69.2,29.7,67.6,29.2,66.8,29.2"/>
	<path fill="#000000" d="M82.2,29.1l-4.6,12.1c-0.3,0.7-0.5,1.2-1.1,1c-0.3-0.1-0.7-0.5-0.3-1.3l5-10.9h-3.4c-1.9,0-2.2,0.5-2.4,1.7
		l-0.1,0.4h-0.4l0.9-5.4H76c0,1.5,0.4,1.7,2.4,1.7h3.7V29.1z"/>
	<path fill="#000000" d="M85.4,38.2v-0.5c1.7,0,2-0.4,2-2.6v-3.5c0-2.2-0.3-2.6-2-2.6v-0.4h5.5v0.4c-1.8,0-2,0.4-2,2.6v3.5
		c0,2.2,0.3,2.6,2,2.6v0.5H85.4z"/>
	<path fill="#000000" d="M19.9,21.4c0,1,0.1,1.1,0.9,1.1v0.2h-2.5v-0.2c0.8,0,0.9-0.2,0.9-1.1v-0.9l-1.5-2.5
		c-0.4-0.6-0.7-0.8-1.4-0.8v-0.2h2.7v0.2c-0.8,0-0.8,0.3-0.5,0.7l1.3,2.1l1.4-2.1c0.3-0.5,0.3-0.7-0.5-0.7v-0.2h2.2v0.2
		c-0.8,0-1,0.3-1.4,0.8l-1.5,2.4V21.4z"/>
	<path fill="#000000" d="M20.9,22.8h-2.6v-0.3h0c0.7,0,0.8-0.1,0.8-1.1v-1l-1.5-2.5c-0.4-0.6-0.7-0.8-1.3-0.8h0v-0.3H19v0.3h0
		c-0.3,0-0.5,0.1-0.6,0.2c0,0.1,0,0.3,0.1,0.5l1.3,2.1l1.3-2.1c0.2-0.3,0.2-0.4,0.2-0.5c-0.1-0.1-0.3-0.2-0.6-0.2h0v-0.3h2.3v0.3h0
		c-0.7,0-0.9,0.2-1.3,0.8L20,20.4l0,1c0,1,0.1,1.1,0.8,1.1h0V22.8z M18.3,22.7h2.4v-0.1c-0.8,0-0.9-0.2-0.9-1.2v-1l1.5-2.5
		c0.4-0.6,0.6-0.9,1.3-0.9v-0.1h-2.1V17c0.4,0,0.6,0.1,0.7,0.2c0.1,0.1,0,0.3-0.2,0.6L19.8,20l-1.4-2.2c-0.2-0.3-0.2-0.5-0.2-0.6
		c0.1-0.1,0.3-0.2,0.6-0.2v-0.1h-2.6V17c0.6,0,0.9,0.2,1.3,0.9l1.5,2.5l0,1c0,1-0.1,1.2-0.9,1.2V22.7z"/>
	<path fill="#000000" d="M24.2,21.8c-0.2,0.5,0,0.7,0.7,0.7v0.2h-2.2v-0.2c0.8,0,0.8-0.2,1.1-0.8l2.1-5H26l2.1,5
		c0.3,0.7,0.3,0.8,1.1,0.8v0.2h-2.6v-0.2c0.8,0,0.9-0.2,0.7-0.7l-0.4-1.1h-2.3L24.2,21.8z M25.8,18l-1,2.4h2L25.8,18z"/>
	<path fill="#000000" d="M29.3,22.8h-2.7v-0.3h0c0.4,0,0.7-0.1,0.7-0.2c0.1-0.1,0-0.3-0.1-0.5l-0.4-1.1h-2.2l-0.4,1.1
		c-0.1,0.2-0.1,0.4,0,0.5c0.1,0.1,0.3,0.2,0.7,0.2h0v0.3h-2.3v-0.3h0c0.7,0,0.8-0.1,1.1-0.8l2.1-5.1h0.2l2.1,5.1
		c0.3,0.6,0.3,0.8,1,0.8h0V22.8z M26.7,22.7h2.5v-0.1c-0.7,0-0.8-0.2-1.1-0.8l0-0.1l-2-4.9h-0.1l-2.1,5c-0.3,0.6-0.3,0.8-1.1,0.8
		v0.1h2.1v-0.1c-0.4,0-0.7-0.1-0.8-0.2c-0.1-0.1-0.1-0.3,0-0.6l0.5-1.1h2.3l0.5,1.1c0.1,0.3,0.1,0.4,0,0.6c-0.1,0.2-0.3,0.2-0.8,0.2
		V22.7z M26.8,20.4h-2.1l1-2.5L26.8,20.4z M24.9,20.3h1.8l-0.9-2.2L24.9,20.3z"/>
	<path fill="#000000" d="M34,21.3c0.6,0.7,1.2,1.2,1.7,1.2v0.2h-1.5l-1.8-2.6H32v1.2c0,1,0.1,1.1,0.9,1.1v0.2h-2.5v-0.2
		c0.8,0,0.9-0.2,0.9-1.1v-3.2c0-1-0.1-1.1-0.9-1.1v-0.2h2.5c1.3,0,2,0.7,2,1.7c0,0.8-0.6,1.5-1.7,1.6L34,21.3z M34,18.5
		c0-0.7-0.4-1.3-1.2-1.3H32v2.6h0.8C33.6,19.8,34,19.2,34,18.5"/>
	<path fill="#000000" d="M35.8,22.8h-1.6l-1.9-2.6l-0.4,0v1.2c0,1,0.1,1.1,0.8,1.1h0v0.3h-2.6v-0.3h0c0.7,0,0.8-0.1,0.8-1.1v-3.2
		c0-0.9-0.1-1.1-0.8-1.1h0v-0.3h2.5c1.4,0,2.1,0.9,2.1,1.7c0,0.9-0.6,1.5-1.6,1.7l0.9,1.1c0.6,0.7,1.2,1.2,1.7,1.2l0,0V22.8z
		 M31.9,20.1h0.5l1.9,2.6l1.5,0v-0.1c-0.5-0.1-1.1-0.5-1.7-1.3l-1-1.2l0.1,0c1-0.1,1.6-0.7,1.6-1.6c0-1-0.8-1.6-2-1.6h-2.4V17
		c0.8,0,0.9,0.2,0.9,1.2v3.2c0,1-0.1,1.2-0.9,1.2v0.1h2.4v-0.1c-0.8,0-0.9-0.2-0.9-1.2V20.1z M32.8,19.9h-0.9v-2.7h0.9
		c0.9,0,1.2,0.7,1.2,1.3C34,19.3,33.5,19.9,32.8,19.9 M32,19.8h0.8c0.7,0,1.1-0.5,1.1-1.2c0-0.6-0.3-1.2-1.1-1.2H32V19.8z"/>
	<path fill="#000000" d="M41,21.3c0.6,0.7,1.2,1.2,1.7,1.2v0.2h-1.5l-1.8-2.6h-0.4v1.2c0,1,0.1,1.1,0.9,1.1v0.2h-2.5v-0.2
		c0.8,0,0.9-0.2,0.9-1.1v-3.2c0-1-0.1-1.1-0.9-1.1v-0.2h2.5c1.3,0,2,0.7,2,1.7c0,0.8-0.6,1.5-1.7,1.6L41,21.3z M40.9,18.5
		c0-0.7-0.4-1.3-1.2-1.3h-0.8v2.6h0.8C40.5,19.8,40.9,19.2,40.9,18.5"/>
	<path fill="#000000" d="M42.7,22.8h-1.6l-1.9-2.6l-0.4,0v1.2c0,1,0.1,1.1,0.8,1.1h0v0.3h-2.6v-0.3h0c0.7,0,0.8-0.1,0.8-1.1v-3.2
		c0-0.9-0.1-1.1-0.8-1.1h0v-0.3h2.5c1.4,0,2.1,0.9,2.1,1.7c0,0.9-0.6,1.5-1.6,1.7l0.9,1.1c0.6,0.7,1.2,1.2,1.7,1.2l0,0V22.8z
		 M38.8,20.1h0.5l1.9,2.6l1.5,0v-0.1c-0.5-0.1-1.1-0.5-1.7-1.3l-1-1.2l0.1,0c1-0.1,1.6-0.7,1.6-1.6c0-1-0.8-1.6-2-1.6h-2.4V17
		c0.8,0,0.9,0.2,0.9,1.2v3.2c0,1-0.1,1.2-0.9,1.2v0.1h2.4v-0.1c-0.8,0-0.9-0.2-0.9-1.2V20.1z M39.7,19.9h-0.9v-2.7h0.9
		c0.9,0,1.2,0.7,1.2,1.3C40.9,19.3,40.4,19.9,39.7,19.9 M38.9,19.8h0.8c0.7,0,1.1-0.5,1.1-1.2c0-0.6-0.3-1.2-1.1-1.2h-0.8V19.8z"/>
	<path fill="#000000" d="M44.9,21.8c-0.2,0.5,0,0.7,0.7,0.7v0.2h-2.2v-0.2c0.8,0,0.8-0.2,1.1-0.8l2.1-5h0.1l2.1,5
		c0.3,0.7,0.3,0.8,1.1,0.8v0.2h-2.6v-0.2c0.8,0,1-0.2,0.7-0.7l-0.4-1.1h-2.3L44.9,21.8z M46.4,18l-1,2.4h2L46.4,18z"/>
	<path fill="#000000" d="M49.9,22.8h-2.7v-0.3h0c0.4,0,0.7-0.1,0.7-0.2c0.1-0.1,0-0.3,0-0.5l-0.4-1.1h-2.2l-0.4,1.1
		c-0.1,0.2-0.1,0.4,0,0.5c0.1,0.1,0.3,0.2,0.7,0.2h0v0.3h-2.3v-0.3h0c0.7,0,0.8-0.1,1.1-0.8l2.1-5.1h0.2l2.1,5.1
		c0.3,0.6,0.3,0.8,1,0.8h0V22.8z M47.4,22.7h2.5v-0.1c-0.7,0-0.8-0.2-1.1-0.8l0-0.1l-2.1-4.9h-0.1l-2.1,5c-0.3,0.6-0.3,0.8-1.1,0.8
		v0.1h2.1v-0.1c-0.4,0-0.7-0.1-0.8-0.2c-0.1-0.1-0.1-0.3,0-0.6l0.5-1.1h2.3l0.5,1.1c0.1,0.3,0.1,0.4,0,0.6c-0.1,0.2-0.3,0.2-0.8,0.2
		V22.7z M47.5,20.4h-2.1l1-2.5L47.5,20.4z M45.5,20.3h1.8l-0.9-2.2L45.5,20.3z"/>
	<path fill="#000000" d="M58.9,17.9l-2.1,5h-0.1l-2.1-5c-0.3-0.7-0.3-0.8-1.1-0.8v-0.2h2.6v0.2c-0.8,0-1,0.2-0.7,0.7l1.6,3.8
		l1.6-3.8c0.2-0.5,0-0.7-0.7-0.7v-0.2H60v0.2C59.3,17.1,59.2,17.2,58.9,17.9"/>
	<path fill="#000000" d="M56.9,22.9h-0.2l-2.1-5c-0.3-0.7-0.3-0.8-1.1-0.8h0v-0.3h2.7v0.3h0c-0.4,0-0.7,0.1-0.7,0.2
		c-0.1,0.1,0,0.3,0,0.5l1.5,3.7l1.5-3.7c0.1-0.2,0.1-0.4,0-0.5c-0.1-0.1-0.3-0.2-0.7-0.2h0v-0.3h2.3v0.3h0c-0.7,0-0.8,0.1-1,0.8
		L56.9,22.9z M56.8,22.8L56.8,22.8l2.1-5c0.3-0.6,0.3-0.8,1.1-0.8v-0.1h-2.1V17c0.4,0,0.7,0.1,0.8,0.2c0.1,0.1,0.1,0.3,0,0.6
		L57,21.7l-1.6-3.9c-0.1-0.3-0.1-0.4,0-0.6c0.1-0.2,0.3-0.2,0.8-0.2v-0.1h-2.5V17c0.7,0,0.8,0.2,1.1,0.8L56.8,22.8z"/>
	<path fill="#000000" d="M61.3,21.8c-0.2,0.5,0,0.7,0.7,0.7v0.2h-2.2v-0.2c0.8,0,0.8-0.2,1.1-0.8l2.1-5h0.1l2.1,5
		c0.3,0.7,0.3,0.8,1.1,0.8v0.2h-2.6v-0.2c0.8,0,1-0.2,0.7-0.7L64,20.7h-2.3L61.3,21.8z M62.9,18l-1,2.4h1.9L62.9,18z"/>
	<path fill="#000000" d="M66.4,22.8h-2.7v-0.3h0c0.4,0,0.7-0.1,0.7-0.2c0.1-0.1,0-0.3-0.1-0.5L64,20.7h-2.2l-0.4,1.1
		c-0.1,0.2-0.1,0.4,0,0.5c0.1,0.1,0.3,0.2,0.7,0.2h0v0.3h-2.3v-0.3h0c0.7,0,0.8-0.1,1.1-0.8l2.1-5.1h0.2l2.1,5.1
		c0.3,0.6,0.3,0.8,1,0.8h0V22.8z M63.8,22.7h2.5v-0.1c-0.7,0-0.8-0.2-1.1-0.8l0-0.1l-2-4.9H63l-2.1,5c-0.3,0.6-0.3,0.8-1.1,0.8v0.1
		H62v-0.1c-0.4,0-0.7-0.1-0.8-0.2c-0.1-0.1-0.1-0.3,0-0.6l0.5-1.1H64l0.5,1.1c0.1,0.3,0.1,0.4,0,0.6c-0.1,0.2-0.3,0.2-0.8,0.2V22.7z
		 M63.9,20.4h-2.1l1-2.5L63.9,20.4z M62,20.3h1.8l-0.9-2.2L62,20.3z"/>
	<path fill="#000000" d="M67.4,22.5c0.8,0,0.9-0.2,0.9-1.1v-3.2c0-1-0.1-1.1-0.9-1.1v-0.2h2.5v0.2c-0.8,0-0.9,0.2-0.9,1.1v3
		c0,1,0.1,1.1,0.9,1.1h1.1c0.8,0,1-0.2,1.1-0.7l0-0.2h0.2l-0.1,1.3h-4.9V22.5z"/>
	<path fill="#000000" d="M72.3,22.8h-5v-0.3h0c0.7,0,0.8-0.1,0.8-1.1v-3.2c0-0.9-0.1-1.1-0.8-1.1h0v-0.3H70v0.3h0
		c-0.7,0-0.8,0.1-0.8,1.1v3c0,1,0.1,1.1,0.8,1.1h1.1c0.8,0,0.9-0.2,1-0.7l0.1-0.2h0.3L72.3,22.8z M67.5,22.7h4.8l0.1-1.2h-0.1l0,0.2
		c-0.1,0.6-0.3,0.8-1.1,0.8h-1.1c-0.8,0-0.9-0.2-0.9-1.2v-3c0-1,0.1-1.2,0.9-1.2v-0.1h-2.4V17c0.8,0,0.9,0.2,0.9,1.2v3.2
		c0,1-0.1,1.2-0.9,1.2V22.7z"/>
	<path fill="#000000" d="M73.9,22.5c0.8,0,0.9-0.2,0.9-1.1v-3.2c0-1-0.1-1.1-0.9-1.1v-0.2h2.5v0.2c-0.8,0-0.9,0.2-0.9,1.1v3
		c0,1,0.1,1.1,0.9,1.1h1.1c0.8,0,1-0.2,1.1-0.7l0-0.2h0.2l-0.1,1.3h-4.9V22.5z"/>
	<path fill="#000000" d="M78.8,22.8h-5v-0.3h0c0.7,0,0.8-0.1,0.8-1.1v-3.2c0-0.9-0.1-1.1-0.8-1.1h0v-0.3h2.6v0.3h0
		c-0.7,0-0.8,0.1-0.8,1.1v3c0,1,0.1,1.1,0.8,1.1h1.1c0.8,0,0.9-0.2,1-0.7l0.1-0.2h0.3L78.8,22.8z M74,22.7h4.8l0.1-1.2h-0.1l0,0.2
		c-0.1,0.6-0.3,0.8-1.1,0.8h-1.1c-0.8,0-0.9-0.2-0.9-1.2v-3c0-1,0.1-1.2,0.9-1.2v-0.1H74V17c0.8,0,0.9,0.2,0.9,1.2v3.2
		c0,1-0.1,1.2-0.9,1.2V22.7z"/>
	<path fill="#000000" d="M80.4,22.5c0.8,0,0.9-0.2,0.9-1.1v-3.2c0-1-0.1-1.1-0.9-1.1v-0.2h4.3l0.1,1.3h-0.2l0-0.2
		c-0.1-0.5-0.2-0.7-1.1-0.7H82v2.2h0.5c0.9,0,1.1-0.1,1.1-0.9h0.2v2.2h-0.2c0-0.8-0.1-0.9-1.1-0.9H82v1.4c0,1,0.1,1.1,0.9,1.1h0.8
		c0.9,0,1-0.2,1.1-0.7l0-0.2H85L85,22.7h-4.6V22.5z"/>
	<path fill="#000000" d="M85,22.8h-4.7v-0.3h0c0.7,0,0.8-0.1,0.8-1.1v-3.2c0-1-0.1-1.1-0.8-1.1h0v-0.3h4.3l0.1,1.4h-0.3L84.4,18
		c-0.1-0.5-0.2-0.7-1-0.7h-1.3v2.1h0.4c0.9,0,1-0.1,1-0.9v0h0.3v2.3h-0.3v0c0-0.8-0.1-0.9-1-0.9h-0.4v1.4c0,1,0.1,1.1,0.8,1.1h0.8
		c0.8,0,0.9-0.2,1-0.7l0.1-0.2h0.3L85,22.8z M80.4,22.7h4.5l0.1-1.2h-0.1l0,0.2c-0.1,0.6-0.3,0.8-1.1,0.8h-0.8
		c-0.8,0-0.9-0.2-0.9-1.2v-1.5h0.5c0.9,0,1.1,0.1,1.1,0.9h0.1v-2.1h-0.1c0,0.8-0.2,0.9-1.1,0.9H82v-2.3h1.4c0.9,0,1,0.3,1.1,0.8
		l0,0.2h0.1l-0.1-1.2h-4.2V17c0.8,0,0.9,0.2,0.9,1.2v3.2c0,1-0.1,1.2-0.9,1.2V22.7z"/>
	<path fill="#000000" d="M89.9,21.4c0,1,0.1,1.1,0.9,1.1v0.2h-2.5v-0.2c0.8,0,0.9-0.2,0.9-1.1v-0.9l-1.6-2.5
		c-0.4-0.6-0.7-0.8-1.4-0.8v-0.2h2.7v0.2c-0.8,0-0.8,0.3-0.5,0.7l1.3,2.1l1.4-2.1c0.3-0.5,0.3-0.7-0.5-0.7v-0.2h2.2v0.2
		c-0.8,0-1,0.3-1.4,0.8l-1.5,2.4V21.4z"/>
	<path fill="#000000" d="M90.8,22.8h-2.6v-0.3h0c0.7,0,0.8-0.1,0.8-1.1v-1l-1.5-2.5c-0.4-0.6-0.7-0.8-1.3-0.8h0v-0.3h2.8v0.3h0
		c-0.3,0-0.5,0.1-0.6,0.2c-0.1,0.1,0,0.3,0.1,0.5l1.3,2.1l1.3-2.1c0.2-0.3,0.2-0.4,0.2-0.5c-0.1-0.1-0.3-0.2-0.6-0.2h0v-0.3h2.3v0.3
		h0c-0.7,0-0.9,0.2-1.3,0.8l-1.5,2.4l0,1c0,1,0.1,1.1,0.8,1.1h0V22.8z M88.3,22.7h2.4v-0.1c-0.8,0-0.9-0.2-0.9-1.2v-1l1.5-2.5
		c0.4-0.6,0.6-0.9,1.3-0.9v-0.1h-2.1V17c0.4,0,0.6,0.1,0.7,0.2c0.1,0.1,0,0.3-0.2,0.6L89.7,20l-1.4-2.2c-0.2-0.3-0.2-0.5-0.1-0.6
		c0.1-0.1,0.3-0.2,0.6-0.2v-0.1h-2.6V17c0.6,0,0.9,0.2,1.3,0.9l1.6,2.5l0,1c0,1-0.1,1.2-0.9,1.2V22.7z"/>
	<path fill="#000000" d="M100.1,47.6H9.9V9.4h90.2V47.6z M102,7.5H8v42H102V7.5z"/>
</g>
</svg>
