<?xml version="1.0" encoding="utf-8"?>
<!-- Generator: Adobe Illustrator 18.1.1, SVG Export Plug-In . SVG Version: 6.00 Build 0)  -->
<!DOCTYPE svg PUBLIC "-//W3C//DTD SVG 1.1//EN" "http://www.w3.org/Graphics/SVG/1.1/DTD/svg11.dtd">
<svg version="1.1" id="Layer_1" xmlns="http://www.w3.org/2000/svg" xmlns:xlink="http://www.w3.org/1999/xlink" x="0px" y="0px"
	 viewBox="0 0 370 57" enable-background="new 0 0 370 57" xml:space="preserve">
<g>
	<path fill="#000000" d="M302.1,28.1L302.1,28.1l-2.5,0c0-0.1,0.8-0.3,1.4-0.5V14.7h5.3c4.4,0,6.4,3,6.4,6.7c0,3.7-2.4,6.7-6.8,6.7
		H302.1z M330.4,41.8c-1.4,0.7-3,1.3-5.9,1.3c-5.2,0-9.5-4-13.2-8.4l-4-4.7h0.1c5.7-0.6,9.8-4.1,9.8-8.5c0-4.7-3.8-8.6-10.8-8.6H297
		h0h-0.2H294c-0.4,0-0.5,1.2,0.2,1.2c1.1,0.1,2.7,0.3,2.7,4.1c0,0.3,0,19.7,0,19.9c0,3.8-1.6,4-2.7,4.1c-0.7,0-0.6,1.2-0.2,1.2h2.7
		h0.2h0h4h0h0.2h2.7c0.4,0,0.5-1.2-0.2-1.2c-1.1-0.1-2.7-0.3-2.7-4.1c0-0.5,0-8.1,0-8.1h1.6c1.1,1.5,5.6,7.3,9.3,10.6
		c2,1.8,5.6,4.6,12.3,4.6c2.6,0,4.7-0.7,6.5-1.9C331.3,42.8,330.8,41.8,330.4,41.8"/>
	<path fill="#000000" d="M69.5,42.1c-8.6,0-11.9-7.8-11.9-14.1c0-6.3,3.3-14.1,11.9-14.1c8.7,0,12,7.8,12,14.1
		C81.5,34.3,78.2,42.1,69.5,42.1 M86.3,28c0-8.8-7.5-16.1-16.7-16.1c-9.2,0-16.7,7.3-16.7,16.1c0,8.8,7.5,16.1,16.7,16.1
		C78.8,44.1,86.3,36.9,86.3,28"/>
	<path fill="#000000" d="M46,12.8h-3.3h0h-3L29.1,34.2L18.4,12.8h-3.8h-3.3c-0.4,0-0.5,1.2,0.2,1.2c1.1,0.1,3.1,0.3,3.1,4.1
		c0,0.5,0,20.3,0,20.3c-0.1,3.4-1.8,3.7-2.9,3.7c-0.7,0-0.6,1.2-0.2,1.2h3.1h0h1.9h0h3.1c0.4,0,0.5-1.2-0.2-1.2
		c-1.1-0.1-2.8-0.3-2.9-3.6l0-20.3l11.1,22.5c0,0.1,0.1,0.2,0.2,0.2h0.3c0.1,0,0.2,0,0.3-0.1l10.4-20.9l0,19.3
		C38.4,41.8,37,42,36,42.1c-0.7,0-0.6,1.2-0.2,1.2h2.9h0h3.9h0h2.9c0.4,0,0.5-1.2-0.2-1.2c-1.1-0.1-2.6-0.3-2.7-3.7V17.8
		c0.1-3.6,2-3.8,3.1-3.9C46.5,13.9,46.4,12.8,46,12.8"/>
	<path fill="#000000" d="M249.7,42.1c-1.1-0.1-2.6-0.3-2.7-3.7V17.8c0.1-3.6,2-3.8,3.1-3.9c0.7,0,0.6-1.2,0.2-1.2H247h0h-3
		l-10.6,21.4l-10.6-21.4h-3.8h-3.3c-0.4,0-0.5,1.2,0.2,1.2c1.1,0.1,3.1,0.3,3.1,4.1c0,0.5,0,20.3,0,20.3c-0.1,3.4-1.8,3.7-2.9,3.7
		c-0.7,0-0.6,1.2-0.2,1.2h3.1h0h1.9h0h3.1c0.4,0,0.5-1.2-0.2-1.2c-1.1-0.1-2.8-0.3-2.9-3.6l0-20.3l11.1,22.5
		c0.1,0.1,0.1,0.2,0.2,0.2h0.3c0.1,0,0.2,0,0.3-0.1L243,19.7l0,19.3c-0.3,2.8-1.7,3.1-2.7,3.1c-0.7,0-0.6,1.2-0.2,1.2h2.9h0h3.9h0
		h2.9C250.3,43.3,250.4,42.1,249.7,42.1"/>
	<path fill="#000000" d="M122.4,12.8h-2.8h-0.2h0h-2.1h0H117h-2.6c-0.4,0-0.5,1.2,0.2,1.2c1.1,0.1,2.7,0.3,2.7,4.1
		c0,0.3,0,14.1,0,14.1c0,6.6-4,9.7-9.2,9.7c-5,0-8.8-3.1-8.8-9.7c0,0,0-13.6,0-14.1c0-3.8,1.6-4,2.7-4.1c0.7,0,0.6-1.2,0.2-1.2h-2.6
		h-0.4h0h-4h0h0h-2.9c-0.4,0-0.5,1.2,0.2,1.2c1.1,0.1,2.7,0.3,2.7,4.1c0,0.4,0,13.9,0,13.9c0,8,5.4,12.2,12,12.2
		c6.7,0,12.1-4.2,12.1-12.2c0,0,0-13.4,0-13.9c0-3.8,1.6-4,2.7-4.1C122.9,13.9,122.8,12.8,122.4,12.8"/>
	<path fill="#000000" d="M138.7,42.1c-1.1-0.1-2.7-0.3-2.7-4.1c0-0.3,0-19.4,0-19.4l20.4,25.6h1.1V19.6c0-0.6,0-1.1,0-1.6
		c0-3.8,1.6-4,2.7-4.1c0.7,0,0.6-1.2,0.2-1.2h-2.8h-0.1h0h-1.9h0h-0.5h-2.4c-0.4,0-0.5,1.2,0.2,1.2c1.1,0.1,2.7,0.3,2.7,4.1
		c0,0.5,0,17.6,0,17.6c0.4,1.1,0.6,1.9,0.5,2c-0.3-0.4-0.7-1-1.7-2.3l-18-22.6h-2.3h0h-0.2h-2.8c-0.4,0-0.5,1.2,0.2,1.2
		c1.1,0.1,2.7,0.3,2.7,4.1c0,0.3,0,19.7,0,19.9c0,3.8-1.6,4-2.7,4.1c-0.7,0-0.6,1.2-0.2,1.2h2.5h2.6h2.7
		C139.3,43.3,139.4,42.1,138.7,42.1"/>
	<path fill="#000000" d="M358.7,12.8h-8.6c-0.4,0-0.5,1,0.1,1.1c2.8,0.3,2.5,1.4,1,3.8l-7.3,11.1l0,0l-7.2-11.1l7.2,11.1l0,0
		l-7.2-11.1c-1.2-1.9-1.7-3.3,0.8-3.7c0,0,0.1,0,0.1,0c0,0,0.1,0,0.1,0c0.7-0.1,0.6-1.1,0.2-1.2h-11.2c-0.4,0-0.5,1.1,0.2,1.2
		c0,0,0.1,0,0.1,0c0,0,0,0,0,0c2.5,0.4,3.6,1.6,5.3,4.3l8.4,13.2c0,0,0,6.3,0,6.5c0,3.8-1.6,4-2.7,4.1c-0.7,0-0.6,1.2-0.2,1.2h2.7
		h0.2h0h4h0h0.3h2.6c0.4,0,0.5-1.2-0.2-1.2c-1.1-0.1-2.7-0.3-2.7-4.1c0-0.3,0-7,0-7l8.3-12.7c1.7-2.6,2.4-4,5.6-4.3
		C359.1,13.7,359.1,12.8,358.7,12.8"/>
	<path fill="#000000" d="M168,18.7l0-0.1c0.7-2.7,1.2-3.9,5.8-3.9h5.8c0,0,0,23,0,23.2c0,4-1.9,4-3,4.1c-0.7,0-0.6,1.2-0.2,1.2h3
		h4.5h2.9c0.4,0,0.5-1.2-0.2-1.2c-1.1-0.1-3-0.1-3-4.1c0-0.2,0-23.2,0-23.2h5.8c4.6,0,5.1,1.2,5.8,3.9l0,0.1c0,0,0,0,0,0
		c0.1,0.7,1.2,0.5,1.2,0c0,0,0-0.1,0-0.1l-0.4-5.9h-29l-0.4,6c0,0,0,0,0,0C166.8,19.2,167.9,19.5,168,18.7"/>
	<path fill="#000000" d="M265.6,30.3l5-11.8l5.2,12.2h-10.4l0,0h-0.7C264.8,30.6,265.1,30.5,265.6,30.3 M287.2,42.1
		c-2.7-0.3-2.7-1.4-4-4.3l-11.1-25.9h-0.7l-11,25.9c-1.3,3-1.4,4.1-4.1,4.3c-0.6,0.2-0.5,1.1-0.1,1.1h8.1c0.4-0.1,0.5-1-0.1-1.2
		c-2.8-0.3-3-1.5-2-3.8l2.4-5.7h12l2.5,5.7c1,2.4,0.8,3.5-2.1,3.8c-0.6,0.2-0.5,1.1-0.1,1.1h10.3C287.7,43.2,287.8,42.3,287.2,42.1"
		/>
</g>
</svg>
